#!OML:ASF H:\ManfredETheater\Project 1\Capture day 1\Session 1\subject.ASF
:FULLY-SPECIFIED
:DEGREES
280
root 6.33141 16.3289 -19.7649 -127.389 16.6107 196.296
lowerback 50.625 2.88624 -6.16657
upperback 8.52292 3.28179 1.76514
thorax -11.3128 2.43345 3.12993
lowerneck -4.50853 -2.99506 6.2977
upperneck -29.31 -1.53733 1.72944
head -8.49712 -0.224776 -0.606457
rclavicle -6.36111e-014 8.38871e-014
rhumerus 44.7183 18.3523 -55.4339
rradius 49.2146
rwrist 7.7668
rhand -23.7491 -2.81172
rfingers 7.12502
rthumb 2.71965 -32.7741
lclavicle -6.36111e-014 8.38871e-014
lhumerus -0.312475 -15.7808 80.2119
lradius 26.8257
lwrist -1.80695
lhand -11.0929 5.82966
lfingers 7.12502
lthumb 14.931 35.2715
rfemur -59.9324 -7.30994 36.8963
rtibia 52.1959
rfoot -14.7589 -17.3955
rtoes -44.7743
lfemur -51.4049 7.94702 -9.94506
ltibia 111.35
lfoot -12.0527 -3.79078
ltoes 0.0692204
281
root 6.5955 16.4032 -20.2367 -127.933 16.5551 197.082
lowerback 50.6944 3.61527 -7.02295
upperback 8.56674 3.69366 1.39984
thorax -11.2627 2.64759 2.92901
lowerneck -4.54572 -3.17778 5.97784
upperneck -29.7628 -1.52241 2.46397
head -8.6447 -0.191127 -0.311356
rclavicle -6.04305e-014 5.08889e-014
rhumerus 41.6394 16.7472 -56.9644
rradius 48.1608
rwrist 6.11721
rhand -25.5461 -2.98623
rfingers 7.12502
rthumb 0.98413 -32.9637
lclavicle -6.04305e-014 5.08889e-014
lhumerus -2.20116 -13.4161 81.4599
lradius 27.826
lwrist 1.17268
lhand -18.2203 5.25671
lfingers 7.12502
lthumb 8.05773 35.0831
rfemur -55.9873 -6.97071 36.7951
rtibia 50.4918
rfoot -14.1699 -16.3292
rtoes -45.3887
lfemur -54.1838 8.51234 -10.3323
ltibia 111.834
lfoot -13.9046 -3.10159
ltoes 0.100808
282
root 6.85552 16.4787 -20.7145 -128.614 16.4978 197.768
lowerback 50.7867 4.37487 -7.90025
upperback 8.66309 4.16007 1.06943
thorax -11.1569 2.88877 2.74777
lowerneck -4.34841 -3.38755 5.6963
upperneck -30.2638 -1.56485 3.09624
head -8.85269 -0.190022 -0.0498162
rclavicle 2.8625e-014 1.55052e-014
rhumerus 38.4788 15.1594 -58.3524
rradius 46.7474
rwrist 5.32345
rhand -26.4298 -3.61828
rfingers 7.12502
rthumb 0.130678 -33.598
lclavicle 2.8625e-014 1.55052e-014
lhumerus -3.7666 -10.9467 82.4629
lradius 28.5879
lwrist 3.48099
lhand -24.0271 3.9202
lfingers 7.12502
lthumb 2.45118 33.8859
rfemur -52.0162 -6.72883 36.5798
rtibia 48.7637
rfoot -13.2553 -14.884
rtoes -45.904
lfemur -56.9442 8.74502 -10.7675
ltibia 111.721
lfoot -15.6881 -2.85047
ltoes 0.18623
283
root 7.11133 16.5525 -21.1978 -129.427 16.4259 198.334
lowerback 50.9284 5.16194 -8.78147
upperback 8.81942 4.69296 0.815386
thorax -10.9959 3.16057 2.61753
lowerneck -4.05081 -3.6254 5.36058
upperneck -30.7477 -1.68029 3.63935
head -9.07169 -0.217376 0.199111
rclavicle -4.29375e-014 1.33186e-014
rhumerus 35.3464 13.6411 -59.4941
rradius 44.9552
rwrist 5.52911
rhand -26.4481 -4.8844
rfingers 7.12502
rthumb 0.112998 -34.8641
lclavicle -4.29375e-014 1.33186e-014
lhumerus -5.00703 -8.39267 83.3188
lradius 29.0508
lwrist 4.8713
lhand -28.4304 2.28394
lfingers 7.12502
lthumb -1.80157 32.2561
rfemur -48.0469 -6.61975 36.2607
rtibia 47.0217
rfoot -11.9832 -13.0605
rtoes -46.2082
lfemur -59.631 8.69417 -11.2784
ltibia 111.001
lfoot -17.3944 -2.83163
ltoes -0.840414
284
root 7.36371 16.6276 -21.6896 -130.333 16.3257 198.788
lowerback 51.0933 5.95735 -9.65246
upperback 9.01562 5.27034 0.64508
thorax -10.8003 3.45092 2.55031
lowerneck -3.68425 -3.86736 4.96352
upperneck -31.15 -1.84869 4.09309
head -9.27122 -0.265872 0.435718
rclavicle 5.40694e-014 -4.6118e-014
rhumerus 32.3079 12.3461 -60.357
rradius 42.7796
rwrist 6.59165
rhand -25.7103 -6.67149
rfingers 7.12502
rthumb 0.825549 -36.6496
lclavicle 5.40694e-014 -4.6118e-014
lhumerus -6.02973 -5.81371 84.0573
lradius 29.233
lwrist 5.36991
lhand -31.3357 0.960614
lfingers 7.12502
lthumb -4.60733 30.8905
rfemur -44.1048 -6.68574 35.8819
rtibia 45.2251
rfoot -10.1674 -10.9449
rtoes -46.3558
lfemur -62.243 8.42125 -11.8189
ltibia 109.688
lfoot -18.9593 -3.07943
ltoes -2.49812
285
root 7.61299 16.7043 -22.1914 -131.282 16.1694 199.139
lowerback 51.2523 6.71807 -10.4688
upperback 9.24248 5.85959 0.555425
thorax -10.5774 3.74344 2.53948
lowerneck -3.31622 -4.09896 4.49584
upperneck -31.4221 -2.05885 4.45981
head -9.41989 -0.328957 0.66044
rclavicle -2.54444e-014 3.91606e-014
rhumerus 29.411 11.3968 -60.9883
rradius 40.2524
rwrist 8.20738
rhand -24.3543 -8.64865
rfingers 7.12502
rthumb 2.13519 -38.6177
lclavicle -2.54444e-014 3.91606e-014
lhumerus -6.91896 -3.28576 84.6913
lradius 29.1728
lwrist 5.17425
lhand -33.1589 0.388131
lfingers 7.12502
lthumb -6.36765 30.2724
rfemur -40.2113 -6.94272 35.4585
rtibia 43.3166
rfoot -7.55771 -8.61835
rtoes -46.1343
lfemur -64.7833 8.01926 -12.3719
ltibia 107.795
lfoot -20.3593 -3.52338
ltoes -4.60048
286
root 7.85752 16.7826 -22.7048 -132.262 15.8818 199.36
lowerback 51.4304 7.35126 -11.1151
upperback 9.48527 6.40154 0.531248
thorax -10.3447 4.01236 2.54448
lowerneck -3.02097 -4.31361 3.9551
upperneck -31.506 -2.30637 4.75105
head -9.48144 -0.405259 0.875129
rclavicle 4.45278e-014 -1.07344e-014
rhumerus 26.6782 10.8581 -61.4354
rradius 37.435
rwrist 9.9313
rhand -22.5427 -10.4323
rfingers 7.12502
rthumb 3.88472 -40.3767
lclavicle 4.45278e-014 -1.07344e-014
lhumerus -7.73776 -0.831155 85.2343
lradius 28.9135
lwrist 4.55058
lhand -34.1884 0.491825
lfingers 7.12502
lthumb -7.36139 30.3438
rfemur -36.3479 -7.46834 34.9969
rtibia 41.2228
rfoot -3.95451 -6.39768
rtoes -45.5842
lfemur -67.2377 7.47591 -12.9391
ltibia 105.332
lfoot -21.5524 -4.04471
ltoes -6.88022
287
root 8.09674 16.8622 -23.2297 -133.212 15.413 199.467
lowerback 51.579 7.79566 -11.5094
upperback 9.738 6.86332 0.555634
thorax -10.102 4.24306 2.53164
lowerneck -2.8321 -4.5088 3.33044
upperneck -31.3847 -2.57518 5.01132
head -9.44209 -0.489913 1.09374
rclavicle -2.22639e-014 -2.48481e-014
rhumerus 24.0798 10.6896 -61.8286
rradius 34.437
rwrist 11.387
rhand -20.4447 -11.7468
rfingers 7.12502
rthumb 5.9105 -41.6444
lclavicle -2.22639e-014 -2.48481e-014
lhumerus -8.5649 1.44867 85.6851
lradius 28.5534
lwrist 3.87009
lhand -34.6885 1.00112
lfingers 7.12502
lthumb -7.84411 30.8356
rfemur -32.5094 -8.24999 34.5134
rtibia 38.8935
rfoot 0.71679 -4.62433
rtoes -44.3239
lfemur -69.6141 6.84862 -13.5204
ltibia 102.315
lfoot -22.5304 -4.54264
ltoes -9.22763
288
root 8.33029 16.9408 -23.7639 -134.081 14.7262 199.494
lowerback 51.6403 8.02286 -11.5836
upperback 9.99928 7.24914 0.624208
thorax -9.84674 4.43751 2.47077
lowerneck -2.75942 -4.69634 2.66779
upperneck -31.0738 -2.8757 5.22492
head -9.30819 -0.590483 1.30143
rclavicle 2.70347e-014 -4.35338e-014
rhumerus 21.52 10.688 -62.316
rradius 31.4035
rwrist 12.367
rhand -18.2467 -12.4816
rfingers 7.12502
rthumb 8.03227 -42.3089
lclavicle 2.70347e-014 -4.35338e-014
lhumerus -9.45472 3.4868 86.071
lradius 28.1778
lwrist 3.45107
lhand -34.9094 1.47899
lfingers 7.12502
lthumb -8.05734 31.3054
rfemur -28.6928 -9.23455 34.0349
rtibia 36.3176
rfoot 6.15788 -3.80058
rtoes -42.4525
lfemur -71.9262 6.19595 -14.1162
ltibia 98.7796
lfoot -23.3075 -4.97618
ltoes -11.3623
289
root 8.55772 17.0144 -24.304 -134.835 13.8096 199.477
lowerback 51.5757 8.02088 -11.2986
upperback 10.2619 7.56256 0.723667
thorax -9.58137 4.59875 2.33155
lowerneck -2.80065 -4.88521 1.99194
upperneck -30.5961 -3.20161 5.42207
head -9.09073 -0.708302 1.50231
rclavicle 3.18055e-014 -1.64991e-014
rhumerus 18.9005 10.5548 -63.0498
rradius 28.4693
rwrist 12.8682
rhand -16.1871 -12.7142
rfingers 7.12502
rthumb 10.0197 -42.4557
lclavicle 3.18055e-014 -1.64991e-014
lhumerus -10.4616 5.21291 86.3956
lradius 27.8987
lwrist 3.5801
lhand -34.9614 1.70131
lfingers 7.12502
lthumb -8.1075 31.5258
rfemur -24.8906 -10.3229 33.5743
rtibia 33.535
rfoot 11.8218 -4.12449
rtoes -40.0858
lfemur -74.1694 5.54565 -14.7387
ltibia 94.7723
lfoot -23.846 -5.3374
ltoes -12.9439
290
root 8.77924 17.0765 -24.845 -135.449 12.6728 199.466
lowerback 51.3282 7.8088 -10.6442
upperback 10.5232 7.82949 0.851737
thorax -9.30084 4.73922 2.09639
lowerneck -2.90875 -5.08191 1.35601
upperneck -30.0173 -3.55112 5.58341
head -8.82635 -0.844377 1.68045
rclavicle -4.77083e-015 2.68359e-014
rhumerus 16.1307 9.88557 -64.1371
rradius 25.7427
rwrist 13.1074
rhand -14.418 -12.625
rfingers 7.12502
rthumb 11.7261 -42.2768
lclavicle -4.77083e-015 2.68359e-014
lhumerus -11.6321 6.56166 86.6719
lradius 27.8028
lwrist 4.33279
lhand -34.9741 1.56437
lfingers 7.12502
lthumb -8.11982 31.3884
rfemur -21.1002 -11.3744 33.153
rtibia 30.6214
rfoot 17.0919 -5.47692
rtoes -37.316
lfemur -76.345 4.94519 -15.4032
ltibia 90.3585
lfoot -24.1213 -5.66216
ltoes -14.0272
291
root 8.996 17.1206 -25.3823 -135.942 11.3549 199.507
lowerback 50.8946 7.43566 -9.65119
upperback 10.779 8.08355 1.01158
thorax -9.00356 4.87586 1.76228
lowerneck -3.03944 -5.29076 0.774074
upperneck -29.4076 -3.91783 5.71353
head -8.55016 -0.994203 1.83563
rclavicle 5.725e-014 -3.39922e-014
rhumerus 13.1869 8.30828 -65.5638
rradius 23.3104
rwrist 13.3236
rhand -13.1366 -12.4714
rfingers 7.12502
rthumb 12.9615 -42.0488
lclavicle 5.725e-014 -3.39922e-014
lhumerus -12.991 7.50405 86.9086
lradius 27.9514
lwrist 5.60207
lhand -35.0257 1.09092
lfingers 7.12502
lthumb -8.16956 30.913
rfemur -17.3115 -12.264 32.7869
rtibia 27.7043
rfoot 21.4702 -7.42611
rtoes -34.4247
lfemur -78.3921 4.42527 -16.1414
ltibia 85.6108
lfoot -24.0843 -5.96975
ltoes -14.8413
